<svg version="1.2" xmlns="http://www.w3.org/2000/svg" viewBox="0 0 157 148" width="157" height="148">
<title>right-caret-svg</title>
<style>.a{fill:rgb(20, 20, 20)}</style>
<path class="a" d="m78 1c3.1 0.6 4.8 1.4 7 3.7 0.9 0.8 0.9 0.8 1.7 1.7q0.9 0.9 1.9 1.8 0.9 1 1.9 2 3.3 3.3 6.5 6.5 2.2 2.3 4.5 4.5 5.8 5.9 11.7 11.9 9.4 9.5 18.9 18.9 3.3 3.4 6.6 6.7 2 2 4 4.1 0.9 0.9 1.8 1.8c3 3.1 3 3.1 6.5 5.4 0.4 2.1 0.4 2.1 0 5-1.8 2.6-4 4.7-6.3 6.9q-0.9 1-2 2-3.3 3.4-6.6 6.7-2.3 2.3-4.6 4.6-4.9 4.8-9.7 9.7-6.2 6.1-12.4 12.4-4.8 4.7-9.5 9.5-2.3 2.3-4.6 4.6-3.2 3.2-6.4 6.3-0.9 1-1.9 2c-4.3 4.2-4.3 4.2-7.9 4.7q-1.1-0.2-2.1-0.4c0.2-3.8 0.7-5.6 3.3-8.5q1.4-1.3 3-2.6 1.6-1.4 3.3-2.9 0.8-0.7 1.7-1.5c2.7-2.4 5.3-5 7.9-7.6 0.8-0.8 0.8-0.8 1.6-1.6q2.5-2.5 5-5 1.7-1.7 3.5-3.5 4.5-4.6 9.1-9.1 4.7-4.7 9.3-9.4 9.2-9.1 18.3-18.3c-1.6-4.3-4.9-7.1-8.1-10.2q-1-1-1.9-1.9-2.1-2-4.1-4-3.2-3.2-6.4-6.4-9.2-9-18.3-18-5.7-5.5-11.2-11-2.2-2.1-4.3-4.2-3-3-6-5.9-0.9-0.9-1.8-1.8c-1.6-1.6-1.6-1.6-3.9-4.6 0.1-2.9 0.1-2.9 1-5z"/>
<path class="a" d="m3 1c3.2 0.6 4.8 1.4 7.1 3.7q0.9 0.9 1.8 1.7 0.9 1 1.9 2 1 1 2 2 3.4 3.3 6.7 6.6 2.3 2.3 4.7 4.6 4.8 4.8 9.6 9.7 6.2 6.2 12.5 12.4 4.8 4.7 9.6 9.5 2.2 2.3 4.5 4.5 3.3 3.2 6.4 6.4c1 1 1 1 2 1.9 4.1 4.2 4.1 4.2 4.5 7.5-1.9 3.7-4.6 6.4-7.6 9.3-1 1-1 1-2 2q-3.2 3.3-6.5 6.6-2.3 2.2-4.5 4.5-4.8 4.8-9.6 9.5-6.1 6.1-12.1 12.3-4.7 4.7-9.4 9.3-2.3 2.3-4.5 4.6-3.1 3.1-6.3 6.2-0.9 1-1.9 1.9c-4.2 4.2-4.2 4.2-7.8 4.7q-1-0.2-2.1-0.4c-0.4-2.2-0.4-2.2 0-5 1.9-2.1 3.6-3.7 5.7-5.5q1.8-1.6 3.6-3.2 0.9-0.8 1.9-1.7c2.8-2.5 5.5-5.1 8.1-7.8 0.8-0.8 0.8-0.8 1.6-1.6q2.5-2.5 5-5 1.7-1.7 3.5-3.5 4.5-4.5 9.1-9.1 4.6-4.7 9.3-9.3 9.1-9.2 18.2-18.3c-1.6-4.3-4.9-7.1-8.1-10.2q-1-1-1.9-1.9-2.1-2-4.1-4-3.2-3.2-6.4-6.4-9.2-9-18.3-18-5.7-5.5-11.2-11-2.2-2.1-4.3-4.2-3-3-6-5.9-0.9-0.9-1.8-1.8c-1.6-1.6-1.6-1.6-3.9-4.6 0.1-2.9 0.1-2.9 1-5z"/>
</svg>