<?xml version="1.0" encoding="UTF-8"?>
<svg version="1.1" xmlns="http://www.w3.org/2000/svg" width="297" height="250">
<path d="M0 0 C98.01 0 196.02 0 297 0 C297 82.5 297 165 297 250 C198.99 250 100.98 250 0 250 C0 167.5 0 85 0 0 Z " fill="#FEFEFE" transform="translate(0,0)"/>
<path d="M0 0 C3.13807647 0.57837438 4.77120217 1.39850515 7.01113892 3.65710449 C7.8606739 4.50262123 7.8606739 4.50262123 8.72737122 5.36521912 C9.3363475 5.98655228 9.94532379 6.60788544 10.57275391 7.24804688 C11.22361465 7.90007584 11.8744754 8.5521048 12.5450592 9.22389221 C14.69593787 11.38196196 16.83610683 13.55034617 18.9765625 15.71875 C20.46748347 17.21780549 21.95914194 18.71612782 23.45150757 20.21374512 C27.37973689 24.15910422 31.29931399 28.11294391 35.21673584 32.06903076 C41.49243992 38.40390209 47.78085541 44.72614986 54.06980515 51.04786682 C56.26953628 53.26159949 58.46543237 55.47908162 60.66079712 57.69714355 C62.0024614 59.04882788 63.34420316 60.4004353 64.68603516 61.75195312 C65.29905991 62.37328629 65.91208466 62.99461945 66.54368591 63.63478088 C69.48447062 66.69355723 69.48447062 66.69355723 73 69 C73.39091492 71.06864929 73.39091492 71.06864929 73 74 C71.205741 76.57834834 68.97920161 78.7032448 66.74536133 80.90161133 C66.08039642 81.57533783 65.41543152 82.24906433 64.73031616 82.94320679 C62.52664549 85.16890133 60.30516342 87.37578789 58.08203125 89.58203125 C56.54627898 91.12115073 55.01126967 92.66101186 53.47697449 94.20158386 C50.25761604 97.42831779 47.02937669 100.64582454 43.79467773 103.85717773 C39.64579305 107.97757571 35.51975748 112.12001144 31.40010548 116.26961231 C28.23415412 119.45361753 25.05640704 122.62563416 21.87494469 125.79413414 C20.34861638 127.31712321 18.82600413 128.84384576 17.30716896 130.37430763 C15.18383516 132.51031719 13.04517191 134.62967707 10.90161133 136.74536133 C10.27438675 137.38270706 9.64716217 138.0200528 9.00093079 138.67671204 C4.6617486 142.91175147 4.6617486 142.91175147 1.06864929 143.39091492 C0.38599503 143.26191299 -0.29665924 143.13291107 -1 143 C-0.75474367 139.15201053 -0.32997529 137.36958694 2.27386475 134.45317078 C3.26082336 133.61615128 4.24778198 132.77913177 5.26464844 131.91674805 C6.36933079 130.95459936 7.47175533 129.98985348 8.57214355 129.02279663 C9.14148117 128.52657681 9.71081879 128.03035698 10.29740906 127.51910019 C13.03908329 125.07290026 15.63381114 122.48724402 18.22753906 119.88598633 C19.01575609 119.09833909 19.01575609 119.09833909 19.8198967 118.29477978 C21.47061654 116.64265411 23.11816236 114.98740435 24.765625 113.33203125 C25.93652588 112.15925873 27.10765259 110.98671165 28.2789917 109.81437683 C31.31915471 106.77044729 34.35629949 103.72352446 37.39276123 100.67590332 C40.50867192 97.54965029 43.62751666 94.42632716 46.74609375 91.30273438 C52.83355609 85.20463855 58.91782353 79.10336789 65 73 C63.35258642 68.70724974 60.10754008 65.88529527 56.88208008 62.75024414 C56.25595322 62.13346298 55.62982635 61.51668182 54.98472595 60.88121033 C53.6270298 59.54449288 52.26718019 58.20995996 50.90543556 56.87736702 C48.75291342 54.76887837 46.60841517 52.65254348 44.4662323 50.53355408 C38.37581329 44.51035308 32.27737929 38.49546348 26.15844727 32.5012207 C22.41512288 28.83305492 18.68645979 25.15052904 14.96689415 21.45828056 C13.54535348 20.05287963 12.11827248 18.65306032 10.68567848 17.2589283 C8.68648379 15.31250105 6.70642062 13.34839613 4.72973633 11.37915039 C4.13083588 10.80496368 3.53193542 10.23077698 2.91488647 9.63919067 C1.29597473 8.00404358 1.29597473 8.00404358 -1 5 C-0.85810852 2.1013031 -0.85810852 2.1013031 0 0 Z " fill="#070406" transform="translate(158,52)"/>
<path d="M0 0 C3.17304471 0.58138231 4.823187 1.44472303 7.10725403 3.70611572 C7.69477448 4.28084122 8.28229492 4.85556671 8.88761902 5.44770813 C9.52000992 6.08145859 10.15240082 6.71520905 10.80395508 7.36816406 C11.47914185 8.03327499 12.15432861 8.69838593 12.84997559 9.38365173 C15.0811977 11.5863572 17.30091227 13.80023039 19.51953125 16.015625 C21.0629829 17.54944021 22.60666169 19.08302689 24.15055847 20.61639404 C27.38463918 23.83250549 30.61245031 27.05476591 33.83666992 30.28076172 C37.97571031 34.42010745 42.13502212 38.53841257 46.29993153 42.6517067 C49.49366865 45.81214879 52.67373854 48.98607061 55.85007286 52.16399384 C57.37832753 53.68870023 58.91146771 55.20852555 60.44947243 56.7233963 C62.59512427 58.83976836 64.72105979 60.97416651 66.84301758 63.11425781 C67.80678566 64.05273811 67.80678566 64.05273811 68.7900238 65.01017761 C72.91425724 69.22491544 72.91425724 69.22491544 73.27708435 72.50474548 C71.36846653 76.23393317 68.68507224 78.87932634 65.72363281 81.80981445 C64.74059677 82.80577385 64.74059677 82.80577385 63.73770142 83.82185364 C61.56961452 86.01263456 59.38711152 88.18835837 57.203125 90.36328125 C55.69144072 91.88019898 54.18027826 93.39763689 52.6696167 94.91557312 C49.50186764 98.0937324 46.32673669 101.26428562 43.14648438 104.42993164 C39.06772421 108.49149087 35.00967861 112.57305973 30.95714188 116.66076374 C27.84160745 119.79823378 24.7144932 122.92395429 21.58382416 126.04631615 C20.08247558 127.54684337 18.58498078 129.05123661 17.09140778 130.55950356 C15.0040209 132.66426665 12.90137717 134.75249216 10.79394531 136.8371582 C10.17764252 137.4651532 9.56133972 138.09314819 8.92636108 138.74017334 C4.65998739 142.91307854 4.65998739 142.91307854 1.07537842 143.38517761 C0.39050354 143.258069 -0.29437134 143.13096039 -1 143 C-1.35600281 140.84466553 -1.35600281 140.84466553 -1 138 C0.85138156 135.93730501 2.59609451 134.25717716 4.69604492 132.48535156 C5.90189815 131.42153508 7.10573181 130.35542571 8.30770874 129.28723145 C8.92502743 128.74303055 9.54234612 128.19882965 10.17837143 127.63813782 C12.99190861 125.10800531 15.66990564 122.45135307 18.34106445 119.77246094 C19.13033467 118.98376051 19.13033467 118.98376051 19.93554974 118.17912674 C21.58027229 116.53300142 23.22182207 114.88375385 24.86328125 113.234375 C26.03275253 112.06303137 27.20245018 110.8919137 28.37236023 109.7210083 C31.40429139 106.68531615 34.43320407 103.64663065 37.46142578 100.60723877 C40.57071812 97.48759169 43.68295564 94.37088561 46.79492188 91.25390625 C52.86611314 85.17209137 58.93410815 79.08710042 65 73 C63.35258642 68.70724974 60.10754008 65.88529527 56.88208008 62.75024414 C56.25595322 62.13346298 55.62982635 61.51668182 54.98472595 60.88121033 C53.6270298 59.54449288 52.26718019 58.20995996 50.90543556 56.87736702 C48.75291342 54.76887837 46.60841517 52.65254348 44.4662323 50.53355408 C38.37581329 44.51035308 32.27737929 38.49546348 26.15844727 32.5012207 C22.41512288 28.83305492 18.68645979 25.15052904 14.96689415 21.45828056 C13.54535348 20.05287963 12.11827248 18.65306032 10.68567848 17.2589283 C8.68648379 15.31250105 6.70642062 13.34839613 4.72973633 11.37915039 C4.13083588 10.80496368 3.53193542 10.23077698 2.91488647 9.63919067 C1.29597473 8.00404358 1.29597473 8.00404358 -1 5 C-0.85810852 2.1013031 -0.85810852 2.1013031 0 0 Z " fill="#070406" transform="translate(83,52)"/>
</svg>
